<svg width="14" height="12" viewBox="0 0 14 12" fill="none" xmlns="http://www.w3.org/2000/svg">
    <path fill-rule="evenodd" clip-rule="evenodd" d="M1.66536 8.53268H2.24378C2.99314 8.53268 3.68755 8.92585 4.0731 9.56843L4.62005 10.48L4.66653 10.2476C4.86596 9.25046 5.74152 8.53268 6.75844 8.53268H12.332C12.6266 8.53268 12.8654 8.2939 12.8654 7.99935V1.99935C12.8654 1.7048 12.6266 1.46602 12.332 1.46602H1.66536C1.37081 1.46602 1.13203 1.7048 1.13203 1.99935V7.99935C1.13203 8.2939 1.37081 8.53268 1.66536 8.53268ZM4.55242 10.8182C4.5524 10.8183 4.55243 10.8181 4.55242 10.8182ZM2.24378 9.33268H1.66536C0.928985 9.33268 0.332031 8.73573 0.332031 7.99935V1.99935C0.332031 1.26297 0.928985 0.666016 1.66536 0.666016H12.332C13.0684 0.666016 13.6654 1.26297 13.6654 1.99935V7.99935C13.6654 8.73573 13.0684 9.33268 12.332 9.33268H6.75844C6.12286 9.33268 5.57564 9.7813 5.451 10.4045L5.33688 10.9751C5.21738 11.5726 4.42501 11.7099 4.1115 11.1874L3.3871 9.98002C3.14614 9.57841 2.71213 9.33268 2.24378 9.33268Z" fill="#FAFAFA"/>
</svg>
