<svg width="16" height="16" viewBox="0 0 16 16" fill="none" xmlns="http://www.w3.org/2000/svg">
    <path fill-rule="evenodd" clip-rule="evenodd" d="M3.01957 2.31344C2.82431 2.11818 2.50772 2.11818 2.31246 2.31344C2.1172 2.5087 2.1172 2.82528 2.31246 3.02055L7.29289 8.00098L2.31376 12.9801C2.1185 13.1754 2.1185 13.492 2.31376 13.6872C2.50903 13.8825 2.82561 13.8825 3.02087 13.6872L8 8.70808L12.9791 13.6872C13.1744 13.8825 13.491 13.8825 13.6862 13.6872C13.8815 13.492 13.8815 13.1754 13.6862 12.9801L8.70711 8.00098L13.6875 3.02055C13.8828 2.82528 13.8828 2.5087 13.6875 2.31344C13.4923 2.11818 13.1757 2.11818 12.9804 2.31344L8 7.29387L3.01957 2.31344Z" fill="#747372"/>
</svg>
