<svg width="24" height="24" viewBox="0 0 24 24" fill="none" xmlns="http://www.w3.org/2000/svg">
    <path fill-rule="evenodd" clip-rule="evenodd" d="M2 6C2 5.44772 2.44772 5 3 5H21C21.5523 5 22 5.44772 22 6V18C22 18.5523 21.5523 19 21 19H3C2.44772 19 2 18.5523 2 18V6ZM20.2474 6H3.7526L11.6678 13.0357C11.8573 13.2041 12.1427 13.2041 12.3322 13.0357L20.2474 6ZM3 6.66898V17.3415L9.11242 12.1022L3 6.66898ZM20.2317 18H3.7683L9.86675 12.7728L11.0035 13.7832C11.5718 14.2883 12.4282 14.2883 12.9965 13.7832L14.1333 12.7728L20.2317 18ZM21 17.3415V6.66898L14.8876 12.1022L21 17.3415Z" fill="#FAFAFA"/>
</svg>
