<svg width="16" height="16" viewBox="0 0 16 16" fill="none" xmlns="http://www.w3.org/2000/svg">
    <path d="M8.06732 12.3667L8.00065 12.4333L7.92732 12.3667C4.76065 9.49333 2.66732 7.59333 2.66732 5.66667C2.66732 4.33333 3.66732 3.33333 5.00065 3.33333C6.02732 3.33333 7.02732 4 7.38065 4.90667H8.62065C8.97398 4 9.97398 3.33333 11.0007 3.33333C12.334 3.33333 13.334 4.33333 13.334 5.66667C13.334 7.59333 11.2407 9.49333 8.06732 12.3667ZM11.0007 2C9.84065 2 8.72732 2.54 8.00065 3.38667C7.27398 2.54 6.16065 2 5.00065 2C2.94732 2 1.33398 3.60667 1.33398 5.66667C1.33398 8.18 3.60065 10.24 7.03398 13.3533L8.00065 14.2333L8.96732 13.3533C12.4007 10.24 14.6673 8.18 14.6673 5.66667C14.6673 3.60667 13.054 2 11.0007 2Z" fill="#FAFAFA"/>
</svg>
