<svg width="20" height="21" viewBox="0 0 20 21" fill="none" xmlns="http://www.w3.org/2000/svg">
    <g clip-path="url(#clip0_367_4128)">
        <mask id="path-1-inside-1_367_4128" fill="white">
            <path fill-rule="evenodd" clip-rule="evenodd" d="M10 1L20 7V14V21H12V14H8V21H0V14V7L10 1Z"/>
        </mask>
        <path 
            d="M20 7H21V6.43381L20.5145 6.14251L20 7ZM10 1L10.5145 0.142507L10 -0.16619L9.4855 0.142507L10 
            1ZM20 21V22H21V21H20ZM12 21H11V22H12V21ZM12 14H13V13H12V14ZM8 14V13H7V14H8ZM8 21V22H9V21H8ZM0 21H-1V22H0V21ZM0 
            7L-0.514496 6.14251L-1 6.43381V7H0ZM20.5145 6.14251L10.5145 0.142507L9.4855 1.85749L19.4855 7.85749L20.5145 6.14251ZM19 
            7V14H21V7H19ZM19 14V21H21V14H19ZM20 20H12V22H20V20ZM13 21V14H11V21H13ZM12 13H8V15H12V13ZM7 14V21H9V14H7ZM8 20H0V22H8V20ZM1 
            21V14H-1V21H1ZM1 14V7H-1V14H1ZM9.4855 0.142507L-0.514496 6.14251L0.514496 7.85749L10.5145 1.85749L9.4855 0.142507Z" 
            fill="#FAFAFA" 
            mask="url(#path-1-inside-1_367_4128)"/
        >
    </g>
    <defs>
        <clipPath id="clip0_367_4128">
            <rect width="20" height="20" fill="white" transform="translate(0 0.5)"/>
        </clipPath>
    </defs>
</svg>
