<svg width="22" height="22" viewBox="0 0 22 22" fill="none" xmlns="http://www.w3.org/2000/svg">
    <path fill-rule="evenodd" clip-rule="evenodd" d="M17.0058 2.91526C15.0668 1.47495 12.6748 0.779438 10.2659 0.955524C7.85693 1.13161 5.59149 2.16757 3.8826 3.87452C2.17371 5.58148 1.13518 7.84574 0.956363 10.2545C0.777545 12.6632 1.47035 15.056 2.90845 16.9966C4.34656 18.9372 6.43419 20.2963 8.79073 20.8261C11.0844 21.3419 13.484 21.0386 15.5748 19.9725L16.2852 20.1679L16.2882 20.1687L19.5003 21.0297L19.5125 21.0328C19.8214 21.107 20.1471 21.0583 20.4208 20.8968C20.694 20.7356 20.894 20.4747 20.9787 20.169C21.0375 19.9597 21.0381 19.7383 20.9803 19.5288L20.1653 16.3044L20.1628 16.2948L19.9675 15.5847C21.0358 13.4952 21.3417 11.096 20.8286 8.80188C20.3015 6.44474 18.9447 4.35557 17.0058 2.91526ZM20.9787 20.169L20.9783 20.1705L20.5168 20.0401L20.9791 20.1675L20.9787 20.169ZM10.3358 1.91215C12.5153 1.75284 14.6795 2.38211 16.4338 3.68525C18.1881 4.98839 19.4156 6.87859 19.8926 9.01123C20.3696 11.1439 20.0642 13.3769 19.0322 15.3032C18.9741 15.4117 18.9599 15.5383 18.9925 15.6569L19.2366 16.5443L20.0518 19.7695L20.0552 19.7823C20.067 19.824 20.067 19.868 20.0552 19.9097L20.0544 19.9126C20.0361 19.979 19.9927 20.0357 19.9334 20.0707C19.8754 20.1049 19.8067 20.1158 19.7411 20.1012L16.5395 19.2431L16.5365 19.2422L15.6473 18.9977C15.5288 18.9651 15.4024 18.9792 15.2941 19.0371C13.3666 20.0669 11.1332 20.3697 9.00114 19.8903C6.86904 19.4109 4.98023 18.1813 3.67909 16.4255C2.37794 14.6697 1.75112 12.5048 1.91291 10.3255C2.0747 8.14615 3.01432 6.09754 4.56046 4.55315C6.1066 3.00876 8.15628 2.07147 10.3358 1.91215ZM6.3751 11.0001C6.3751 11.5524 5.92738 12.0001 5.3751 12.0001C4.82281 12.0001 4.3751 11.5524 4.3751 11.0001C4.3751 10.4478 4.82281 10.0001 5.3751 10.0001C5.92738 10.0001 6.3751 10.4478 6.3751 11.0001ZM7.3751 11.0001C7.3751 12.1047 6.47967 13.0001 5.3751 13.0001C4.27053 13.0001 3.3751 12.1047 3.3751 11.0001C3.3751 9.89553 4.27053 9.0001 5.3751 9.0001C6.47967 9.0001 7.3751 9.89553 7.3751 11.0001ZM16.6251 12.0001C17.1774 12.0001 17.6251 11.5524 17.6251 11.0001C17.6251 10.4478 17.1774 10.0001 16.6251 10.0001C16.0728 10.0001 15.6251 10.4478 15.6251 11.0001C15.6251 11.5524 16.0728 12.0001 16.6251 12.0001ZM16.6251 13.0001C17.7297 13.0001 18.6251 12.1047 18.6251 11.0001C18.6251 9.89553 17.7297 9.0001 16.6251 9.0001C15.5205 9.0001 14.6251 9.89553 14.6251 11.0001C14.6251 12.1047 15.5205 13.0001 16.6251 13.0001ZM12.0001 11.0001C12.0001 11.5524 11.5524 12.0001 11.0001 12.0001C10.4478 12.0001 10.0001 11.5524 10.0001 11.0001C10.0001 10.4478 10.4478 10.0001 11.0001 10.0001C11.5524 10.0001 12.0001 10.4478 12.0001 11.0001ZM13.0001 11.0001C13.0001 12.1047 12.1047 13.0001 11.0001 13.0001C9.89553 13.0001 9.0001 12.1047 9.0001 11.0001C9.0001 9.89553 9.89553 9.0001 11.0001 9.0001C12.1047 9.0001 13.0001 9.89553 13.0001 11.0001Z" fill="#FAFAFA"/>
</svg>
