<svg width="20" height="20" viewBox="0 0 20 20" fill="none" xmlns="http://www.w3.org/2000/svg">
    <path d="M18.7002 15.4219L18.4549 14.5296C19.5412 12.5019 19.8626 10.1513 19.3605 7.90646C18.8584 5.66157 17.5663 3.67188 15.7197 2.30016C13.8731 0.928433 11.595 0.266038 9.30074 0.433739C7.00651 0.60144 4.84895 1.58807 3.22143 3.21374C1.59392 4.83941 0.604842 6.99584 0.434539 9.28988C0.264235 11.5839 0.924046 13.8628 2.29367 15.7109C3.6633 17.5591 5.65152 18.8535 7.89584 19.3581C10.1402 19.8628 12.4911 19.544 14.52 18.46L15.4123 18.7054L18.6244 19.5664C18.8124 19.6116 19.0105 19.5819 19.177 19.4837C19.3435 19.3854 19.4653 19.2263 19.5167 19.04C19.5525 18.9131 19.5525 18.7787 19.5167 18.6518L18.7002 15.4219Z" fill="#F05C0C"/>
    <path d="M6.375 10C6.375 11.1046 5.47957 12 4.375 12C3.27043 12 2.375 11.1046 2.375 10C2.375 8.89543 3.27043 8 4.375 8C5.47957 8 6.375 8.89543 6.375 10Z" fill="#FAFAFA"/>
    <path d="M17.625 10C17.625 11.1046 16.7296 12 15.625 12C14.5204 12 13.625 11.1046 13.625 10C13.625 8.89543 14.5204 8 15.625 8C16.7296 8 17.625 8.89543 17.625 10Z" fill="#FAFAFA"/>
    <path d="M12 10C12 11.1046 11.1046 12 10 12C8.89543 12 8 11.1046 8 10C8 8.89543 8.89543 8 10 8C11.1046 8 12 8.89543 12 10Z" fill="#FAFAFA"/>
</svg>
