<svg width="16" height="16" viewBox="0 0 16 16" fill="none" xmlns="http://www.w3.org/2000/svg">
    <path fill-rule="evenodd" clip-rule="evenodd" d="M2.73203 9.93268H3.24378C4.15014 9.93268 4.99376 10.3816 5.50095 11.1245C5.99803 10.3971 6.83249 9.93268 7.75844 9.93268H13.2654V4.06602H2.73203V9.93268ZM2.66536 11.3327H3.24378C3.71213 11.3327 4.14614 11.5784 4.3871 11.98L5.1115 13.1874C5.42501 13.7099 6.21738 13.5726 6.33688 12.9751L6.451 12.4045C6.57564 11.7813 7.12286 11.3327 7.75844 11.3327H13.332C14.0684 11.3327 14.6654 10.7357 14.6654 9.99935V3.99935C14.6654 3.26297 14.0684 2.66602 13.332 2.66602H2.66536C1.92898 2.66602 1.33203 3.26297 1.33203 3.99935V9.99935C1.33203 10.7357 1.92899 11.3327 2.66536 11.3327Z" fill="#FAFAFA"/>
</svg>
